<?xml version="1.0" encoding="UTF-8"?>
<svg width="800" height="1000" viewBox="0 0 800 1000" xmlns="http://www.w3.org/2000/svg">
    <!-- Dış Çerçeve -->
    <rect x="20" y="20" width="760" height="960" fill="none" stroke="#8b7355" stroke-width="2"/>
    
    <!-- İç Çerçeve -->
    <rect x="40" y="40" width="720" height="920" fill="none" stroke="#8b7355" stroke-width="1"/>
    
    <!-- Köşe Süsleri -->
    <!-- Sol Üst -->
    <path d="M10,10 C30,10 30,10 30,30" fill="none" stroke="#8b7355" stroke-width="2"/>
    <path d="M30,10 C50,10 50,10 50,30" fill="none" stroke="#8b7355" stroke-width="1"/>
    <circle cx="30" cy="30" r="3" fill="#8b7355"/>
    
    <!-- Sağ Üst -->
    <path d="M790,10 C770,10 770,10 770,30" fill="none" stroke="#8b7355" stroke-width="2"/>
    <path d="M770,10 C750,10 750,10 750,30" fill="none" stroke="#8b7355" stroke-width="1"/>
    <circle cx="770" cy="30" r="3" fill="#8b7355"/>
    
    <!-- Sol Alt -->
    <path d="M10,990 C30,990 30,990 30,970" fill="none" stroke="#8b7355" stroke-width="2"/>
    <path d="M30,990 C50,990 50,990 50,970" fill="none" stroke="#8b7355" stroke-width="1"/>
    <circle cx="30" cy="970" r="3" fill="#8b7355"/>
    
    <!-- Sağ Alt -->
    <path d="M790,990 C770,990 770,990 770,970" fill="none" stroke="#8b7355" stroke-width="2"/>
    <path d="M770,990 C750,990 750,990 750,970" fill="none" stroke="#8b7355" stroke-width="1"/>
    <circle cx="770" cy="970" r="3" fill="#8b7355"/>
    
    <!-- Üst Orta Süs -->
    <path d="M350,10 C400,20 400,20 450,10" fill="none" stroke="#8b7355" stroke-width="1"/>
    <circle cx="400" cy="15" r="3" fill="#8b7355"/>
    
    <!-- Alt Orta Süs -->
    <path d="M350,990 C400,980 400,980 450,990" fill="none" stroke="#8b7355" stroke-width="1"/>
    <circle cx="400" cy="985" r="3" fill="#8b7355"/>
    
    <!-- Sol Orta Süs -->
    <path d="M10,450 C20,500 20,500 10,550" fill="none" stroke="#8b7355" stroke-width="1"/>
    <circle cx="15" cy="500" r="3" fill="#8b7355"/>
    
    <!-- Sağ Orta Süs -->
    <path d="M790,450 C780,500 780,500 790,550" fill="none" stroke="#8b7355" stroke-width="1"/>
    <circle cx="785" cy="500" r="3" fill="#8b7355"/>
</svg>
